# xmcd
#
# Track frame offsets:
# 150
# 13538
# 32363
# 43738
# 67913
# 79613
# 94375
# 112688
# 125313
# 138350
#
# Disc length: 2101 seconds
#
#
# Revision: 0
# Processed by: cddbd v1.5.2PL0 Copyright (c) Steve Scherf et al.
# Submitted via: FreeRIP 2.00 
#
DISCID=7008330a
DTITLE=Stephen "DAKOTA" Smith and Higher Ground - Stephen "DAKOTA" Smith and Higher Ground
DYEAR=1900
DGENRE=Country
TTITLE0=Rice Up
TTITLE1=Dusty Bell
TTITLE2=Turu Out the Light
TTITLE3=My Dessert Rose
TTITLE4=Higher Ground
TTITLE5=Rollin` Down the Road
TTITLE6=Bridges are Burning
TTITLE7=Crazy Arms
TTITLE8=Texas, USA
TTITLE9=Another Time, Another Place
EXTD=
EXTT0=
EXTT1=
EXTT2=
EXTT3=
EXTT4=
EXTT5=
EXTT6=
EXTT7=
EXTT8=
EXTT9=
PLAYORDER=
